<svg width="45" height="45" viewBox="0 0 45 45" fill="none" xmlns="http://www.w3.org/2000/svg">
<g id="Layer_1" clip-path="url(#clip0_0_1)">
<path id="Vector" d="M45.0001 12.7754V13.191L44.8009 13.4328L41.7295 16.5096C41.4975 16.742 41.0568 16.8429 40.8014 16.5929L37.7054 13.5478C37.3913 13.2391 37.3058 12.8235 37.6058 12.4702L38.521 11.5792C31.9457 6.72281 22.9483 6.53264 16.1282 11.2188C16.8571 12.6416 16.6379 14.3461 15.52 15.4754C14.4091 16.5964 12.6525 16.9052 11.217 16.1046C6.56242 22.8263 6.65969 31.857 11.558 38.4977L12.3888 37.6889C12.6209 37.4107 13.1177 37.298 13.4013 37.5845L16.5911 40.7997C16.8665 41.078 16.7118 41.5346 16.4669 41.7764L13.1681 44.9999H12.7017L12.4369 44.7839L9.36665 41.7107C9.09126 41.4348 9.09244 40.997 9.35727 40.7305L10.5537 39.5261C6.07845 33.5674 5.13863 25.6929 8.11863 18.8033L4.09569 22.7805C4.65232 24.0107 4.07694 25.3642 2.82658 25.7868C1.64068 26.1871 0.364537 25.4828 0.00595239 24.242L0.0036087 23.2418C0.171182 22.6713 0.590703 22.1419 1.05475 21.8836C1.75083 21.4951 2.42112 21.5009 3.10548 21.7979L9.95609 14.9647C8.96353 13.4762 9.20259 11.571 10.4201 10.3748C11.6224 9.19386 13.4951 8.98021 14.9634 9.95454L21.8011 3.10488C21.3171 2.09415 21.6687 0.969565 22.5042 0.383792C23.3749 -0.224284 24.5315 -0.0939818 25.2569 0.626788C26.0268 1.39217 26.0607 2.53906 25.5018 3.39131C24.8772 4.34216 23.7569 4.37972 22.7948 4.15903L18.8 8.10448C25.6928 5.14041 33.5723 6.06543 39.5288 10.5544L40.7346 9.3582C41.0006 9.09408 41.4365 9.09055 41.7119 9.36524L44.7856 12.435L45.0024 12.7707L45.0001 12.7754ZM24.4846 2.16341C24.4846 1.7502 24.1495 1.41564 23.737 1.41564C23.3245 1.41564 22.9893 1.7502 22.9893 2.16341C22.9893 2.57662 23.3245 2.91118 23.737 2.91118C24.1495 2.91118 24.4846 2.57662 24.4846 2.16341ZM15.1497 12.9562C15.1497 11.74 14.1642 10.7551 12.9478 10.7551C11.7314 10.7551 10.7459 11.74 10.7459 12.9562C10.7459 14.1723 11.7314 15.1572 12.9478 15.1572C14.1642 15.1572 15.1497 14.1723 15.1497 12.9562ZM41.2209 10.8561L39.1362 12.9421L41.2221 15.0269L43.3068 12.9409L41.2209 10.8561ZM2.90627 23.7149C2.90627 23.3158 2.58284 22.9918 2.18324 22.9918C1.78364 22.9918 1.46021 23.3158 1.46021 23.7149C1.46021 24.114 1.78364 24.438 2.18324 24.438C2.58284 24.438 2.90627 24.114 2.90627 23.7149ZM12.9501 39.1035L10.8561 41.2024L12.9478 43.2884L15.0419 41.1895L12.9501 39.1035Z" fill="#505050"/>
<path id="Vector_2" d="M45 33.1578V33.6226L44.7668 33.8891L33.8862 44.7664L33.5487 45H33.1339L32.7976 44.7136L30.4176 39.9922L22.742 37.0375C22.5592 36.9671 22.4842 36.8262 22.3893 36.6478L15.1226 18.4724C15.0102 18.1906 15.0676 17.9195 15.2609 17.7258L17.7171 15.27C17.9409 15.0458 18.221 15.0329 18.5304 15.1561L36.5838 22.3709C36.8568 22.4801 36.9893 22.615 37.0877 22.8733L39.9904 30.4226L44.7117 32.8021L44.9988 33.159L45 33.1578ZM16.6203 18.4419L23.5869 35.8577L30.7703 38.6222L38.6216 30.7724L35.8561 23.5882L18.4026 16.6106C18.1999 16.7162 18.0523 16.8442 18.0312 17.032L27.0497 26.0487C28.8684 24.7821 31.2882 25.1683 32.6359 26.8188C33.9823 28.4681 33.8499 30.8828 32.3312 32.3771C30.8125 33.8715 28.3926 33.9666 26.7673 32.5955C25.1548 31.2338 24.7915 28.8508 26.0466 27.05L17.0023 18.0075C16.8101 18.1202 16.6812 18.2 16.6214 18.4419H16.6203ZM32.1531 29.4295C32.1531 27.9222 30.9308 26.7002 29.4227 26.7002C27.9145 26.7002 26.6923 27.9222 26.6923 29.4295C26.6923 30.9368 27.9145 32.1588 29.4227 32.1588C30.9308 32.1588 32.1531 30.9368 32.1531 29.4295ZM33.5769 43.1042L43.0981 33.5851L39.5849 31.8219L31.8003 39.6083L33.5757 43.103L33.5769 43.1042Z" fill="#505050"/>
</g>
<defs>
<clipPath id="clip0_0_1">
<rect width="45" height="45" fill="white"/>
</clipPath>
</defs>
</svg>
